:SAMPLES-PER-SECOND 30
:FULLY-SPECIFIED
:DEGREES
1522
root  -37.9097 40.1039 -10.0999 -5.44897 -3.44165 -0.183228
RightUpLeg  4.92569 -17.8434 -15.7268
RightLeg  11.3191 -30.3691 -0.2571
RightFoot  -2.6744 -0.160219 1.86822
RightToes  2.32829e-010 0 -3.6325e-017
Spine  12.7158 0.295662 7.89964
Spine1  4.94107 3.10745 -7.51714
HEad  -30.8618 42.8412 -22.1052
LeftShoulder1  0.375668 2.36638 -26.856
LeftArm  -11.8465 14.1482 -37.3333
LeftForeArm  11.9625 -12.548 -4.23221
LeftHand  -0.0465626 4.72376 4.35092
RightShoulder  -0.0942101 -3.79588 23.2158
RightArm  17.0366 -5.08817 47.6331
RightForeArm  -4.7632 20.2439 5.13399
RightHand  -0.695093 4.96359 -8.07357
LeftUpLeg  -0.245245 18.8551 16.0667
LeftLeg  14.3413 18.0021 5.02648
LeftFoot  -3.50352 -0.114924 1.91597
LeftToes  -3.54706e-010 1.16038e-010 5.28031e-012
1523
root  -36.7482 40.0021 -9.92334 -4.53912 2.41971 -0.248047
RightUpLeg  6.28623 -18.6362 -17.9796
RightLeg  10.5513 -32.1727 0.082893
RightFoot  -2.50518 -0.251447 3.04841
RightToes  2.32829e-010 0 -3.6325e-017
Spine  11.177 0.216081 7.66007
Spine1  5.37912 2.72933 -6.8634
HEad  -29.1416 41.9479 -21.086
LeftShoulder1  0.387413 2.33395 -26.9364
LeftArm  -11.2639 12.8761 -38.1188
LeftForeArm  12.956 -10.9598 -4.64183
LeftHand  -0.030936 5.20664 3.72963
RightShoulder  -0.170495 -4.04438 23.7737
RightArm  16.4636 -7.27577 47.2136
RightForeArm  -5.1842 20.3924 5.11473
RightHand  -0.723663 4.88946 -8.44737
LeftUpLeg  -0.407259 18.9749 15.3725
LeftLeg  12.2145 19.5646 3.88228
LeftFoot  -1.78086 0.228511 -2.12204
LeftToes  -3.54706e-010 1.16038e-010 5.28031e-012
1524
root  -35.4834 39.8056 -9.73668 -3.80493 8.29843 -0.236328
RightUpLeg  7.90591 -19.3603 -20.3236
RightLeg  9.965 -31.6579 0.262488
RightFoot  -3.13352 -0.372107 4.86413
RightToes  2.32829e-010 0 -3.6325e-017
Spine  9.87701 0.218164 7.66911
Spine1  5.81339 2.48976 -6.27753
HEad  -28.1381 40.5785 -20.2186
LeftShoulder1  0.294296 2.62106 -27.216
LeftArm  -9.5781 11.0497 -38.9498
LeftForeArm  14.4864 -9.53013 -5.56614
LeftHand  -0.0266949 5.29798 2.69783
RightShoulder  -0.122577 -3.88183 23.961
RightArm  16.3495 -9.50763 46.69
RightForeArm  -4.68016 20.2556 5.08464
RightHand  -0.652263 4.61759 -7.85282
LeftUpLeg  -1.09047 19.2251 13.9439
LeftLeg  10.5663 16.3438 1.6256
LeftFoot  0.852533 0.958626 -9.19297
LeftToes  -3.54706e-010 1.16038e-010 5.28031e-012
1525
root  -34.298 39.7221 -9.57375 -3.19983 14.194 1.20947
RightUpLeg  10.2508 -20.0981 -23.6724
RightLeg  8.34754 -27.7395 0.606917
RightFoot  -4.67454 -0.370479 5.95329
RightToes  2.32829e-010 0 -3.6325e-017
Spine  9.58931 0.605805 4.9568
Spine1  5.94687 2.20958 -4.76417
HEad  -26.7823 37.6058 -19.3183
LeftShoulder1  0.194979 2.93477 -28.076
LeftArm  -7.74616 8.6979 -39.6192
LeftForeArm  16.7059 -7.88938 -6.61487
LeftHand  -0.0351627 4.65947 1.70967
RightShoulder  -0.0460823 -3.62595 24.0211
RightArm  16.7905 -11.0323 46.1321
RightForeArm  -3.8463 19.3532 5.19142
RightHand  -0.65636 5.31814 -7.40915
LeftUpLeg  -3.33165 21.7471 10.3237
LeftLeg  12.2412 8.57111 -0.035134
LeftFoot  0.124324 0.478671 -4.75376
LeftToes  -3.54706e-010 1.16038e-010 5.28031e-012
1526
root  -33.1087 39.6036 -9.41872 -2.42957 20.5202 3.00366
RightUpLeg  11.4445 -20.0158 -26.2233
RightLeg  8.917 -19.8877 -0.683985
RightFoot  -8.63114 -0.220827 6.38592
RightToes  2.32829e-010 0 -3.6325e-017
Spine  9.20904 0.443068 2.93329
Spine1  6.57104 1.74802 -4.05645
HEad  -25.8604 34.5602 -18.2307
LeftShoulder1  0.173642 3.00135 -28.3992
LeftArm  -5.96331 6.13966 -40.246
LeftForeArm  18.9254 -6.45268 -7.63067
LeftHand  -0.0296048 5.07478 1.20448
RightShoulder  -0.224726 -4.19927 24.9044
RightArm  16.3628 -10.6342 46.5529
RightForeArm  -0.108309 16.6927 5.53686
RightHand  -0.618168 4.503 -7.52564
LeftUpLeg  -5.65782 19.6158 5.09576
LeftLeg  14.6932 5.2962 0.928339
LeftFoot  -1.84552 0.254669 -2.93145
LeftToes  -3.54706e-010 1.16038e-010 5.28031e-012
1527
root  -31.9579 39.5959 -9.28136 -2.31445 25.2687 3.6748
RightUpLeg  11.1934 -16.418 -25.007
RightLeg  9.50323 -9.97831 -2.43425
RightFoot  -10.6461 -0.0819861 2.60253
RightToes  2.32829e-010 0 -3.6325e-017
Spine  9.38331 0.475175 4.20393
Spine1  7.25206 2.31012 -6.03476
HEad  -24.5538 31.9256 -17.2098
LeftShoulder1  0.214312 2.88952 -28.7614
LeftArm  -4.89193 3.28985 -40.8796
LeftForeArm  21.5265 -4.76822 -8.23447
LeftHand  -0.028658 5.145 0.68692
RightShoulder  -0.223349 -4.19814 24.6833
RightArm  13.6847 -10.5906 48.3792
RightForeArm  4.93752 13.7636 5.8632
RightHand  -0.498487 3.35323 -6.8834
LeftUpLeg  -5.94281 15.0126 1.95219
LeftLeg  15.7823 5.74536 1.63356
LeftFoot  -3.11305 0.0811835 -0.88426
LeftToes  -3.54706e-010 1.16038e-010 5.28031e-012
1528
root  -30.9297 39.6241 -9.13085 -2.62238 28.3356 4.28027
RightUpLeg  9.07005 -8.98751 -22.3702
RightLeg  13.1686 -2.8481 -2.69874
RightFoot  -10.8183 -0.0646288 -0.964842
RightToes  2.32829e-010 0 -3.6325e-017
Spine  10.1846 1.00243 5.12718
Spine1  7.71848 3.29179 -7.72897
HEad  -22.9658 30.2534 -16.4082
LeftShoulder1  0.297856 2.64638 -28.6022
LeftArm  -4.88343 1.93363 -42.3177
LeftForeArm  23.4103 -4.3355 -8.27131
LeftHand  -0.0294117 5.43439 0.354496
RightShoulder  -0.18115 -4.06377 24.5998
RightArm  12.1955 -9.38675 49.5138
RightForeArm  7.12992 10.8515 6.40108
RightHand  -0.468003 4.20447 -5.92898
LeftUpLeg  -4.36092 12.929 0.198338
LeftLeg  15.4713 5.14293 1.0898
LeftFoot  -4.33185 0.0191801 0.106879
LeftToes  -3.54706e-010 1.16038e-010 5.28031e-012
1529
root  -30.0813 39.5837 -8.89496 -2.56293 31.1261 4.69067
RightUpLeg  6.24559 -2.04214 -19.7723
RightLeg  18.0623 -0.877547 -0.453188
RightFoot  -11.7041 -0.0755415 1.67755
RightToes  2.32829e-010 0 -3.6325e-017
Spine  10.9844 1.30044 4.22901
Spine1  7.28421 3.33042 -7.86744
HEad  -21.788 29.9601 -16.0024
LeftShoulder1  0.3184 2.58772 -28.6416
LeftArm  -5.46364 2.52426 -43.4646
LeftForeArm  24.2684 -4.99418 -7.96243
LeftHand  -0.0314781 5.53319 0.0338692
RightShoulder  -0.15954 -3.99311 24.6292
RightArm  13.3255 -7.80591 49.8628
RightForeArm  6.53222 10.3358 6.88509
RightHand  -0.483754 3.47484 -6.57919
LeftUpLeg  -3.48538 11.0991 -0.983534
LeftLeg  15.932 4.25631 0.452979
LeftFoot  -5.89523 0.00562999 0.626923
LeftToes  -3.54706e-010 1.16038e-010 5.28031e-012
1530
root  -29.2827 39.6212 -8.60806 -2.32324 34.2989 4.39954
RightUpLeg  2.72138 -2.10069 -16.9895
RightLeg  22.9244 1.632 0.523577
RightFoot  -11.7399 -0.0712217 2.47276
RightToes  2.32829e-010 0 -3.6325e-017
Spine  11.1725 1.16007 2.64971
Spine1  7.0211 2.43899 -6.00861
HEad  -21.1622 30.2658 -15.93
LeftShoulder1  0.26235 2.75968 -29.1118
LeftArm  -5.33003 3.70197 -44.1036
LeftForeArm  22.9209 -6.42399 -8.04701
LeftHand  -0.0302922 4.76616 1.1637
RightShoulder  -0.140362 -3.93986 24.0343
RightArm  13.6455 -6.78558 50.2413
RightForeArm  6.63864 12.5772 6.28213
RightHand  -0.470946 2.98965 -6.73658
LeftUpLeg  -2.80364 9.15752 -1.56689
LeftLeg  15.6434 3.27658 -0.133937
LeftFoot  -6.89708 -0.0104763 1.33913
LeftToes  -3.54706e-010 1.16038e-010 5.28031e-012
1531
root  -28.4643 39.7019 -8.27622 -2.2074 37.6258 3.84167
RightUpLeg  -1.05181 -2.74563 -13.9451
RightLeg  27.0619 0.568509 0.0809461
RightFoot  -11.5012 -0.0738383 2.449
RightToes  2.32829e-010 0 -3.6325e-017
Spine  10.985 0.660076 1.6067
Spine1  7.00687 1.39659 -4.33032
HEad  -20.957 30.4008 -15.6527
LeftShoulder1  0.275373 2.71225 -28.6863
LeftArm  -4.89301 4.84242 -45.181
LeftForeArm  21.2452 -7.64796 -8.17654
LeftHand  -0.0289361 5.01557 1.44951
RightShoulder  -0.128895 -3.90253 23.9841
RightArm  13.432 -6.48196 50.1068
RightForeArm  3.49372 16.4101 5.21102
RightHand  -0.560859 4.19576 -7.07488
LeftUpLeg  -1.75899 7.82386 -1.84216
LeftLeg  14.7457 1.4435 -0.695661
LeftFoot  -7.62433 -0.0194738 2.00336
LeftToes  -3.54706e-010 1.16038e-010 5.28031e-012
